<svg width="50" height="50" viewBox="0 0 50 50" fill="none" xmlns="http://www.w3.org/2000/svg">
<g clip-path="url(#clip0_2337_2564)">
<path d="M9.1708 22.9285L10.8474 23.7013C10.992 23.7685 11.1586 23.7685 11.3032 23.7013L12.9785 22.9251C14.8137 22.0754 16.4071 20.7792 17.6136 19.1558C17.7472 19.0024 17.7836 18.7872 17.7079 18.5987C17.6322 18.4101 17.4568 18.2795 17.2543 18.2613C17.0518 18.2431 16.856 18.3399 16.7478 18.512C15.6499 19.9921 14.199 21.1741 12.527 21.949L11.0745 22.619L9.62653 21.9481C5.7431 20.14 3.25604 16.2481 3.24674 11.9644V3.97305H7.04307C8.67279 3.97389 10.1917 3.14656 11.0745 1.77726C11.958 3.14656 13.4765 3.97389 15.1058 3.97305H18.9026V11.9623C18.9009 13.6816 18.498 15.3768 17.7261 16.9136C17.5912 17.1803 17.6986 17.5058 17.9654 17.6407C18.2321 17.7756 18.5576 17.6686 18.6925 17.4014C19.5401 15.7134 19.9827 13.8511 19.9849 11.9623V3.43192C19.9849 3.13303 19.7426 2.89079 19.4437 2.89079H15.1058C13.5133 2.89164 12.0979 1.87661 11.5877 0.367796C11.5133 0.147964 11.307 0 11.0745 0C10.8428 0.000422754 10.6369 0.148387 10.5629 0.367796C10.0514 1.87618 8.63601 2.89122 7.04307 2.89079H2.70562C2.40673 2.89079 2.16449 3.13303 2.16449 3.43192V11.9623C2.17337 16.6675 4.90478 20.9428 9.1708 22.9285Z" fill="white"/>
<path d="M4.54418 6.43945C4.24571 6.43945 4.00305 6.68169 4.00305 6.98058V11.9589C4.00982 15.9493 6.32482 19.5753 9.94148 21.2608L10.8453 21.6785C10.9895 21.7465 11.1565 21.7465 11.3011 21.6785L12.2045 21.2608C15.8211 19.5765 18.1366 15.9518 18.145 11.9623V5.27054C18.145 4.97165 17.9028 4.72941 17.6039 4.72941H15.1037C13.7513 4.72983 12.4455 4.23648 11.4308 3.34193C11.2262 3.16141 10.9189 3.16141 10.7143 3.34193C9.70051 4.23606 8.39505 4.72941 7.04308 4.72941H4.54418C4.24571 4.72941 4.00305 4.97165 4.00305 5.27054C4.00305 5.56942 4.24571 5.81166 4.54418 5.81166H7.04308C8.50031 5.81208 9.91738 5.33226 11.0745 4.44701C12.232 5.33268 13.6486 5.81251 15.1058 5.81166H17.0649V11.9623C17.0577 15.5308 14.9862 18.7725 11.7509 20.2783L11.0745 20.592L10.3981 20.2783C7.16356 18.772 5.09249 15.5304 5.0853 11.9623V6.98396C5.08615 6.8398 5.02992 6.70114 4.92804 6.59925C4.82658 6.49695 4.68834 6.43945 4.54418 6.43945Z" fill="white"/>
<path d="M10.9383 7.19264C8.20352 7.19433 5.98787 9.41252 5.98914 12.1469C5.9904 14.8817 8.20775 17.0978 10.9425 17.0973C13.6773 17.0965 15.8938 14.8796 15.8938 12.1448C15.8934 11.9643 15.8833 11.7833 15.8634 11.6037C15.8309 11.3069 15.5633 11.0925 15.2661 11.1255C14.9693 11.1585 14.7549 11.4257 14.7879 11.7229C14.804 11.8645 14.812 12.007 14.8116 12.1494C14.8116 13.9922 13.5125 15.5792 11.7056 15.9432C9.89919 16.3072 8.08684 15.3467 7.37323 13.6477C6.65962 11.9486 7.24345 9.98197 8.7679 8.94707C10.2928 7.91216 12.3359 8.09606 13.6516 9.38631C13.8655 9.5905 14.2041 9.58458 14.4112 9.3732C14.6184 9.16225 14.6171 8.82362 14.4091 8.61351C13.485 7.70079 12.2374 7.1901 10.9383 7.19264Z" fill="white"/>
<path d="M8.69688 11.7856C8.4855 11.5746 8.14265 11.5746 7.93127 11.7864C7.71989 11.9978 7.72032 12.3407 7.93169 12.552L10.2163 14.8366C10.4276 15.048 10.7701 15.048 10.9814 14.8366L16.435 9.37885C16.6117 9.16452 16.5973 8.85126 16.402 8.65383C16.2067 8.4564 15.8934 8.43907 15.6774 8.61367L10.6018 13.6884L8.69688 11.7856Z" fill="white"/>
<path d="M47.6309 21.7185C47.8837 21.6018 48.0067 21.3127 47.9154 21.0497L41.802 3.42214C41.7398 3.23824 41.5838 3.10169 41.3932 3.06449C41.2025 3.02729 41.0063 3.09493 40.8795 3.24205C40.7527 3.38917 40.7146 3.59293 40.7793 3.77599L46.738 20.9415L28.289 29.4655C28.1922 29.5099 28.1111 29.5822 28.0553 29.6731L26.787 31.7391C26.4746 32.2515 25.9702 32.6176 25.3864 32.7554L25.3615 32.7617L21.2164 33.964C21.005 34.0258 20.7801 33.9268 20.682 33.7294C20.5843 33.5324 20.6423 33.2931 20.8194 33.1625L23.0811 31.4956C23.0904 31.4896 23.0993 31.4829 23.1073 31.4749L26.3917 28.7337C26.3993 28.7282 26.4048 28.7206 26.4124 28.7143C26.42 28.7079 26.4395 28.6872 26.4513 28.6733C26.4632 28.6602 26.4737 28.6462 26.4839 28.6318C26.4936 28.6179 26.5033 28.6039 26.5118 28.5887C26.5207 28.5735 26.5291 28.5574 26.5367 28.5409C26.5443 28.5249 26.5498 28.5109 26.5553 28.4944C26.5608 28.4784 26.5659 28.461 26.5705 28.4437C26.5748 28.4264 26.5769 28.4103 26.579 28.393C26.582 28.3752 26.5836 28.3575 26.5845 28.3397C26.5845 28.3236 26.5845 28.3063 26.5845 28.289C26.5832 28.2695 26.5811 28.2505 26.5777 28.2315C26.5777 28.2218 26.5777 28.2133 26.5777 28.2044C26.5756 28.1981 26.5731 28.1917 26.5714 28.185C26.5659 28.1655 26.5596 28.1469 26.5532 28.1287C26.5464 28.1101 26.541 28.0962 26.5338 28.081L26.5088 28.0379C26.4978 28.0205 26.4868 28.0045 26.475 27.988L26.4644 27.9719L26.4458 27.9533C26.4319 27.9385 26.4171 27.9246 26.4014 27.911L26.3647 27.881C26.3494 27.87 26.3338 27.8603 26.3173 27.8518C26.3029 27.843 26.2877 27.8354 26.2729 27.8277C26.2564 27.8201 26.2399 27.8138 26.223 27.8083L26.1753 27.7944C26.1579 27.7901 26.1402 27.7867 26.1224 27.7846C26.1051 27.7834 26.0878 27.7834 26.0704 27.7846H26.0197C26.0002 27.7855 25.9812 27.788 25.9622 27.791H25.9339L24.3278 28.1385C24.261 28.1537 24.1904 28.1397 24.1342 28.1004C24.0767 28.062 24.0374 28.0011 24.026 27.933C24.0078 27.8053 24.0902 27.6853 24.2154 27.6557L28.1115 26.7628C28.1508 26.7544 28.1888 26.7408 28.2252 26.7231L42.4763 19.8495C42.7282 19.7278 42.8462 19.434 42.7477 19.1719L41.5369 15.9251C41.432 15.6452 41.1205 15.5032 40.8402 15.6076C40.5603 15.712 40.4183 16.024 40.5227 16.3039L41.5618 19.0831L38.3755 20.6202C38.6017 19.6149 38.8883 18.624 39.2329 17.6525C39.6658 16.4468 40.0898 15.1798 40.4969 13.8832L40.5671 13.6558C40.6318 13.4478 40.5658 13.2216 40.3993 13.0812C37.0768 10.2674 37.7283 3.73794 37.7372 3.65592C37.7693 3.3583 37.5545 3.09112 37.2569 3.05899C36.9597 3.02644 36.6926 3.24162 36.66 3.53882C36.63 3.82333 35.9663 10.3853 39.4307 13.6655C39.0388 14.9101 38.63 16.1289 38.2145 17.2868C37.7609 18.5682 37.4024 19.8812 37.1419 21.2154L27.8096 25.7165L23.9731 26.595C23.4599 26.7129 23.0646 27.1226 22.9649 27.6392C22.8651 28.1562 23.0794 28.6834 23.5119 28.9836C23.6929 29.1091 23.9021 29.1873 24.1211 29.211L22.4212 30.6319L20.1722 32.2891C19.6353 32.6827 19.4129 33.3777 19.6217 34.0101C19.8306 34.6421 20.4229 35.0683 21.0887 35.0649C21.2354 35.0649 21.3808 35.0446 21.5216 35.0044L25.6557 33.8051C26.513 33.5979 27.2529 33.0581 27.712 32.3051L28.894 30.3786L36.578 26.8258C36.5463 30.4974 37.2421 34.139 38.6254 37.5401C38.8072 37.987 38.9957 38.4414 39.1872 38.9014C40.461 41.9727 41.9102 45.4545 42.5173 49.5379C42.5566 49.8029 42.784 49.9995 43.052 49.9999C43.0783 49.9999 43.1049 49.9978 43.1311 49.9944C43.2731 49.9737 43.4012 49.8972 43.4866 49.7818C43.5725 49.6664 43.6088 49.5218 43.5877 49.3798C42.9641 45.1653 41.4912 41.6159 40.1917 38.4837C40.0023 38.0259 39.815 37.5735 39.6332 37.1275C38.2398 33.6998 37.5727 30.0202 37.6742 26.3215L47.6309 21.7185Z" fill="white"/>
<path d="M19.2996 49.4526C19.2962 49.7515 19.5355 49.9967 19.8344 50.0001H19.8407C20.137 50.0001 20.3784 49.7617 20.3818 49.4653C20.4038 47.4915 20.5784 45.5219 20.9035 43.5747C23.1838 45.0674 25.8886 45.8474 28.8289 45.8474H30.5292C30.8281 45.8474 31.0703 45.6051 31.0703 45.3063C31.0703 45.0074 30.8281 44.7651 30.5292 44.7651H28.8289C21.3952 44.7651 16.9469 39.4545 15.8419 34.1908C14.8247 29.3659 16.1851 22.6107 23.3711 19.432C23.4933 19.3779 23.6159 19.3238 23.7415 19.2739L23.763 19.2642L26.4686 18.001C26.6965 17.8949 26.8212 17.6459 26.7696 17.3998C26.7176 17.1538 26.5033 16.9754 26.2522 16.9699C26.226 16.9699 23.6091 16.8549 22.9695 13.9742C22.7898 13.1313 23.1251 12.2621 23.8235 11.7577C24.4859 11.2834 25.1725 10.8433 25.8797 10.4396H30.473C33.1325 10.4489 35.36 8.42728 35.6082 5.77914L35.8149 3.65058C35.8449 3.35296 35.628 3.08789 35.3304 3.05787C35.0332 3.02828 34.7682 3.24473 34.7381 3.54235L34.5314 5.67092C34.3331 7.76228 32.5736 9.35776 30.473 9.35057H27.0411C28.7295 7.55302 29.7932 5.65824 30.2024 3.70342C30.2493 3.51149 30.188 3.30941 30.0426 3.17582C29.8968 3.04223 29.69 2.99869 29.5032 3.0621C29.3159 3.12551 29.1781 3.28616 29.1438 3.48063C28.7109 5.53691 27.4537 7.55091 25.4037 9.45584C24.6385 9.89043 23.8962 10.3652 23.1809 10.878C22.135 11.6351 21.6361 12.9393 21.9092 14.2013C22.3354 16.1256 23.5229 17.158 24.6309 17.6547L23.3073 18.2715C23.1788 18.3248 23.0519 18.3798 22.9251 18.4351C19.6331 19.8886 17.1461 22.2708 15.7336 25.3214C14.4599 28.0761 14.1179 31.3021 14.774 34.4123C15.4339 37.5411 17.0683 40.3812 19.3744 42.4104C19.557 42.5719 19.7439 42.727 19.935 42.8758C19.9278 42.8932 19.9219 42.9114 19.9176 42.93C19.8982 43.0466 19.3431 45.7459 19.2996 49.4526Z" fill="white"/>
<path d="M11.419 24.3777C11.1201 24.3777 10.8779 24.6199 10.8779 24.9188V25.9199C10.8745 27.4135 11.6304 28.8065 12.8843 29.6181C13.135 29.7809 13.4702 29.7095 13.633 29.4588C13.7962 29.2081 13.7247 28.8728 13.474 28.7101C12.5275 28.0979 11.9567 27.047 11.9589 25.9199V24.9188C11.9589 24.6203 11.717 24.3781 11.419 24.3777Z" fill="white"/>
</g>
<defs>
<clipPath id="clip0_2337_2564">
<rect width="50" height="50" fill="white"/>
</clipPath>
</defs>
</svg>
