<svg width="60" height="60" viewBox="0 0 60 60" fill="none" xmlns="http://www.w3.org/2000/svg">
<path d="M29.353 50.5756C29.5292 50.7384 29.7602 50.8288 30.0001 50.8288C30.2399 50.8287 30.4709 50.7383 30.6471 50.5756C36.739 44.7257 49.1074 31.1673 49.019 22.7691C49.024 20.2683 48.5357 17.7911 47.5821 15.4792C46.6285 13.1674 45.2284 11.0663 43.4618 9.29618C41.6953 7.52609 39.5969 6.12178 37.287 5.16361C34.977 4.20545 32.5008 3.71225 30 3.71225C27.4992 3.71225 25.0229 4.20544 22.713 5.1636C20.403 6.12175 18.3047 7.52606 16.5381 9.29615C14.7715 11.0662 13.3714 13.1673 12.4178 15.4792C11.4643 17.791 10.976 20.2683 10.9809 22.7691C10.8846 31.1529 23.2666 44.7413 29.353 50.5756ZM21.8972 22.7691C22.3278 12.0284 37.6738 12.0315 38.1028 22.7691C38.1028 24.9181 37.2491 26.9791 35.7295 28.4987C34.21 30.0182 32.149 30.8719 30 30.8719C27.851 30.8719 25.79 30.0182 24.2704 28.4986C22.7509 26.979 21.8972 24.9181 21.8972 22.7691ZM50.7166 49.8909C50.6449 58.3696 9.35481 58.3697 9.28343 49.8909C9.28343 46.8523 14.6384 45.0236 20.6968 44.1514C21.1232 44.6667 21.7336 45.3272 22.1879 45.8395C14.6759 46.7398 11.1591 48.6905 11.1591 49.8909C11.1591 51.729 18.5023 54.3925 30 54.3925C41.4978 54.3925 48.841 51.729 48.841 49.8909C48.841 48.6905 45.3241 46.7398 37.8121 45.8395L38.4686 45.108C38.75 44.7892 39.0313 44.4703 39.3032 44.1514C45.3616 45.0237 50.7166 46.8524 50.7166 49.8909Z" fill="#88B395"/>
</svg>
