<svg width="53" height="52" viewBox="0 0 53 52" fill="none" xmlns="http://www.w3.org/2000/svg">
<path d="M26.3366 19.0117C30.028 19.0117 33.0749 22.0586 33.0749 25.75C33.0749 29.5 30.028 32.4883 26.3366 32.4883C22.5866 32.4883 19.5984 29.5 19.5984 25.75C19.5984 22.0586 22.5866 19.0117 26.3366 19.0117ZM26.3366 30.1445C28.739 30.1445 30.6726 28.2109 30.6726 25.75C30.6726 23.3477 28.739 21.4141 26.3366 21.4141C23.8757 21.4141 21.9421 23.3477 21.9421 25.75C21.9421 28.2109 23.9343 30.1445 26.3366 30.1445ZM34.8913 18.7773C34.8913 19.6562 34.1882 20.3594 33.3093 20.3594C32.4304 20.3594 31.7273 19.6562 31.7273 18.7773C31.7273 17.8984 32.4304 17.1953 33.3093 17.1953C34.1882 17.1953 34.8913 17.8984 34.8913 18.7773ZM39.3444 20.3594C39.4616 22.5273 39.4616 29.0312 39.3444 31.1992C39.2273 33.3086 38.7585 35.125 37.2351 36.707C35.7116 38.2305 33.8366 38.6992 31.7273 38.8164C29.5593 38.9336 23.0554 38.9336 20.8874 38.8164C18.778 38.6992 16.9616 38.2305 15.3796 36.707C13.8562 35.125 13.3874 33.3086 13.2702 31.1992C13.153 29.0312 13.153 22.5273 13.2702 20.3594C13.3874 18.25 13.8562 16.375 15.3796 14.8516C16.9616 13.3281 18.778 12.8594 20.8874 12.7422C23.0554 12.625 29.5593 12.625 31.7273 12.7422C33.8366 12.8594 35.7116 13.3281 37.2351 14.8516C38.7585 16.375 39.2273 18.25 39.3444 20.3594ZM36.5319 33.4844C37.2351 31.7852 37.0593 27.6836 37.0593 25.75C37.0593 23.875 37.2351 19.7734 36.5319 18.0156C36.0632 16.9023 35.1843 15.9648 34.071 15.5547C32.3132 14.8516 28.2116 15.0273 26.3366 15.0273C24.403 15.0273 20.3015 14.8516 18.6023 15.5547C17.4304 16.0234 16.5515 16.9023 16.0827 18.0156C15.3796 19.7734 15.5554 23.875 15.5554 25.75C15.5554 27.6836 15.3796 31.7852 16.0827 33.4844C16.5515 34.6562 17.4304 35.5352 18.6023 36.0039C20.3015 36.707 24.403 36.5312 26.3366 36.5312C28.2116 36.5312 32.3132 36.707 34.071 36.0039C35.1843 35.5352 36.1218 34.6562 36.5319 33.4844Z" fill="white"/>
<circle cx="26.0414" cy="26" r="25.25" stroke="white" stroke-width="1.5"/>
</svg>
