<svg width="28" height="28" viewBox="0 0 28 28" fill="none" xmlns="http://www.w3.org/2000/svg">
<path d="M20.9666 0H6.28301C2.813 0 0 2.813 0 6.28301V20.9666C0 24.4366 2.813 27.2496 6.28301 27.2496H20.9666C24.4366 27.2496 27.2496 24.4366 27.2496 20.9666V6.28301C27.2496 2.813 24.4366 0 20.9666 0Z" fill="black"/>
<path d="M17.9501 5.37598C18.9805 5.38015 19.9676 5.79293 20.6963 6.52441C21.425 7.25589 21.8362 8.2468 21.8403 9.28126V17.9684C21.8362 19.0028 21.425 19.9937 20.6963 20.7252C19.9676 21.4567 18.9805 21.8695 17.9501 21.8736H9.19478C8.1643 21.8695 7.1772 21.4567 6.44853 20.7252C5.71986 19.9937 5.30867 19.0028 5.30452 17.9684V9.28126C5.30867 8.2468 5.71986 7.25589 6.44853 6.52441C7.1772 5.79293 8.1643 5.38015 9.19478 5.37598H17.9501ZM17.9501 3.55958H9.19478C6.05981 3.55958 3.49451 6.1377 3.49451 9.28184V17.9684C3.49451 21.1154 6.06272 23.6906 9.19478 23.6906H17.9501C21.085 23.6906 23.6503 21.1125 23.6503 17.9684V9.28126C23.6503 6.13419 21.085 3.55899 17.9501 3.55899V3.55958Z" fill="white"/>
<path d="M13.5725 10.234C14.2405 10.234 14.8936 10.4329 15.4491 10.8055C16.0045 11.1781 16.4375 11.7076 16.6931 12.3272C16.9488 12.9468 17.0157 13.6286 16.8854 14.2863C16.755 14.9441 16.4333 15.5483 15.9609 16.0225C15.4885 16.4967 14.8867 16.8197 14.2314 16.9505C13.5762 17.0813 12.8971 17.0142 12.2798 16.7575C11.6626 16.5009 11.1351 16.0663 10.7639 15.5087C10.3928 14.9511 10.1947 14.2955 10.1947 13.6248C10.1958 12.7259 10.552 11.864 11.1852 11.2284C11.8184 10.5927 12.677 10.2351 13.5725 10.234ZM13.5725 8.4176C12.5465 8.4176 11.5436 8.723 10.6906 9.29518C9.83758 9.86736 9.17272 10.6806 8.78011 11.6321C8.3875 12.5836 8.28478 13.6306 8.48493 14.6407C8.68508 15.6508 9.17911 16.5787 9.90456 17.3069C10.63 18.0351 11.5543 18.5311 12.5605 18.732C13.5667 18.9329 14.6097 18.8298 15.5575 18.4357C16.5054 18.0416 17.3155 17.3741 17.8855 16.5178C18.4555 15.6615 18.7597 14.6547 18.7597 13.6248C18.7597 12.2438 18.2132 10.9193 17.2404 9.94276C16.2676 8.96622 14.9482 8.4176 13.5725 8.4176Z" fill="white"/>
<path d="M18.8729 9.42364C19.5521 9.42364 20.1027 8.8709 20.1027 8.18907C20.1027 7.50723 19.5521 6.9545 18.8729 6.9545C18.1937 6.9545 17.6431 7.50723 17.6431 8.18907C17.6431 8.8709 18.1937 9.42364 18.8729 9.42364Z" fill="white"/>
</svg>
