<svg width="27" height="30" viewBox="0 0 27 30" fill="none" xmlns="http://www.w3.org/2000/svg">
<path d="M13.1836 5.33203C10.7604 5.33203 8.78906 7.30342 8.78906 9.72656C8.78906 12.1497 10.7604 14.1211 13.1836 14.1211C15.6067 14.1211 17.5781 12.1497 17.5781 9.72656C17.5781 7.30342 15.6067 5.33203 13.1836 5.33203ZM13.1836 12.3633C11.7297 12.3633 10.5469 11.1804 10.5469 9.72656C10.5469 8.27268 11.7297 7.08984 13.1836 7.08984C14.6375 7.08984 15.8203 8.27268 15.8203 9.72656C15.8203 11.1804 14.6375 12.3633 13.1836 12.3633Z" fill="black"/>
<path d="M18.192 19.8214C21.3843 14.812 20.983 15.437 21.075 15.3064C22.2373 13.6671 22.8516 11.7376 22.8516 9.72656C22.8516 4.39336 18.5238 0 13.1836 0C7.86082 0 3.51562 4.38469 3.51562 9.72656C3.51562 11.7363 4.14281 13.7163 5.34316 15.3777L8.17512 19.8214C5.14729 20.2867 0 21.6734 0 24.7266C0 25.8396 0.726445 27.4257 4.18723 28.6617C6.60375 29.5247 9.79869 30 13.1836 30C19.5132 30 26.3672 28.2145 26.3672 24.7266C26.3672 21.6728 21.2259 20.2877 18.192 19.8214ZM6.81146 14.4108C6.8018 14.3957 6.79172 14.381 6.78117 14.3664C5.78232 12.9923 5.27344 11.3637 5.27344 9.72656C5.27344 5.33098 8.81285 1.75781 13.1836 1.75781C17.5453 1.75781 21.0938 5.33256 21.0938 9.72656C21.0938 11.3664 20.5945 12.9397 19.6496 14.2776C19.565 14.3893 20.0067 13.703 13.1836 24.4095L6.81146 14.4108ZM13.1836 28.2422C6.26988 28.2422 1.75781 26.21 1.75781 24.7266C1.75781 23.7295 4.07625 22.0901 9.21375 21.4511L12.4424 26.5173C12.6038 26.7705 12.8832 26.9238 13.1835 26.9238C13.4838 26.9238 13.7634 26.7705 13.9247 26.5173L17.1533 21.4511C22.2909 22.0901 24.6094 23.7295 24.6094 24.7266C24.6094 26.1974 20.1379 28.2422 13.1836 28.2422Z" fill="black"/>
</svg>
