<svg width="50" height="50" viewBox="0 0 50 50" fill="none" xmlns="http://www.w3.org/2000/svg">
<path fill-rule="evenodd" clip-rule="evenodd" d="M29.0186 15.1791C30.4956 15.1791 31.9894 15.7396 33.1248 16.875C34.2602 18.0104 34.8206 19.5041 34.8206 20.9812C34.8206 21.8437 35.5206 22.5437 36.3831 22.5437C37.2456 22.5437 37.9456 21.8437 37.9456 20.9812C37.9456 18.7083 37.0831 16.4125 35.3352 14.6646C33.5873 12.9187 31.2915 12.0541 29.0186 12.0541C28.1561 12.0541 27.4561 12.7541 27.4561 13.6166C27.4561 14.4791 28.1561 15.1791 29.0186 15.1791Z" fill="#88B395"/>
<path fill-rule="evenodd" clip-rule="evenodd" d="M29.0248 7.81248C32.3936 7.7979 35.7602 9.08748 38.3373 11.6625C40.9123 14.2396 42.2019 17.6062 42.1873 20.975C42.1832 21.8375 42.8811 22.5396 43.7415 22.5437C44.604 22.5479 45.3082 21.8521 45.3123 20.9896C45.3311 16.8166 43.7373 12.6437 40.5457 9.45415C37.3561 6.26248 33.1832 4.66873 29.0102 4.68748C28.1477 4.69165 27.4519 5.39581 27.4561 6.25831C27.4602 7.11873 28.1623 7.81665 29.0248 7.81248Z" fill="#88B395"/>
<path fill-rule="evenodd" clip-rule="evenodd" d="M26.5167 36.6354C26.9146 36.8729 27.4208 36.8354 27.7792 36.5375C28.9042 35.6 31.3625 33.5521 32.7479 32.3979C33.3583 31.8896 34.1979 31.7521 34.9375 32.0417C38.1708 33.2812 41.4062 33.8937 44.6396 33.8687C45.225 33.8562 45.7896 34.0792 46.2083 34.4875C46.6271 34.8979 46.8625 35.4562 46.8625 36.0417C46.875 38.4583 46.875 42.2333 46.875 44.5646C46.875 45.725 45.9667 46.6833 44.8083 46.7479C43.675 46.8104 42.5 46.875 42.5 46.875C20.7687 46.875 3.125 29.2312 3.125 7.5C3.125 7.5 3.18958 6.325 3.25208 5.19167C3.31667 4.03333 4.275 3.125 5.43542 3.125H14.0354C15.2354 3.125 16.2104 4.09375 16.2208 5.29375C16.2833 8.56042 16.9062 11.8271 18.0208 15.0937C18.2729 15.8167 18.125 16.6187 17.6354 17.2062C16.4917 18.5854 14.4104 21.0833 13.4625 22.2208C13.1625 22.5771 13.1229 23.0854 13.3625 23.4854C16.6562 28.9229 21.0771 33.3437 26.5167 36.6354Z" fill="#88B395"/>
</svg>
