<svg width="60" height="60" viewBox="0 0 60 60" fill="none" xmlns="http://www.w3.org/2000/svg">
<g clip-path="url(#clip0_2316_332)">
<path d="M33.6318 17.5769C38.4778 17.5769 42.4203 21.5194 42.4203 26.3654C42.4203 27.3361 43.2073 28.1231 44.178 28.1231C45.1487 28.1231 45.9357 27.3361 45.9357 26.3654C45.9357 19.581 40.4162 14.0615 33.6318 14.0615C32.6611 14.0615 31.8741 14.8485 31.8741 15.8192C31.8741 16.7899 32.6611 17.5769 33.6318 17.5769ZM33.6318 24.6077C34.601 24.6077 35.3895 25.3962 35.3895 26.3654C35.3895 27.3361 36.1765 28.1231 37.1472 28.1231C38.1179 28.1231 38.9049 27.3361 38.9049 26.3654C38.9049 23.4578 36.5394 21.0923 33.6318 21.0923C32.6611 21.0923 31.8741 21.8793 31.8741 22.85C31.8741 23.8207 32.6611 24.6077 33.6318 24.6077ZM48.0086 45.3318L39.0599 39.3661C36.9762 37.9768 34.1777 38.2537 32.4064 40.0249L29.5167 42.9146C29.3635 42.9341 28.6007 42.9547 26.8338 41.8891C25.3444 40.9907 23.6333 39.605 22.0155 37.9871C20.3976 36.3693 19.0119 34.6582 18.1135 33.1688C17.0477 31.4019 17.0684 30.6394 17.088 30.4859L19.9775 27.5962C21.7488 25.8251 22.0258 23.0267 20.6364 20.9426L14.6705 11.9939C12.8267 9.22788 8.90954 8.83498 6.55446 11.1903L2.1293 15.6153C0.0985767 17.6461 -1.50983 21.7043 2.36014 29.5056C4.8345 34.4935 9.13862 40.1819 14.4795 45.5229C19.8206 50.864 25.5089 55.1681 30.4969 57.6423C35.0594 59.9057 40.8018 61.4583 44.387 57.8732L48.8122 53.448C51.1676 51.0927 50.7746 47.1758 48.0086 45.3318ZM46.3265 50.9622L41.9013 55.3873C39.5821 57.7067 34.7394 55.8225 32.059 54.493C27.4715 52.2173 21.9699 48.0417 16.9653 43.0371C11.9605 38.0325 7.78497 32.5309 5.50922 27.9432C4.1797 25.263 2.29557 20.4204 4.61491 18.1009L9.04007 13.6759C9.82377 12.8923 11.1296 13.0199 11.7455 13.9438L17.7114 22.8924C18.1744 23.5871 18.0821 24.5198 17.4916 25.1103L14.5581 28.044C13.5992 29.0029 12.8493 30.87 14.7222 34.3201C15.7523 36.2178 17.4597 38.4029 19.5295 40.4727C21.5993 42.5426 23.7844 44.2498 25.682 45.28C29.1318 47.1528 30.9993 46.4032 31.9583 45.4442L34.8919 42.5105C35.4822 41.92 36.415 41.8278 37.1098 42.2909L46.0585 48.2566C46.9823 48.8727 47.1101 50.1786 46.3265 50.9622ZM33.6318 7.03077C32.6611 7.03077 31.8741 7.81775 31.8741 8.78846C31.8741 9.75918 32.6611 10.5462 33.6318 10.5462C42.3546 10.5462 49.4511 17.6427 49.4511 26.3654C49.4511 27.3361 50.238 28.1231 51.2088 28.1231C52.1795 28.1231 52.9664 27.3361 52.9664 26.3654C52.9664 15.7043 44.2931 7.03077 33.6318 7.03077ZM33.6318 0C32.6611 0 31.8741 0.786977 31.8741 1.75769C31.8741 2.72841 32.6611 3.51538 33.6318 3.51538C46.2313 3.51538 56.4818 13.7659 56.4818 26.3654C56.4818 27.3361 57.2688 28.1231 58.2395 28.1231C59.2102 28.1231 59.9972 27.3361 59.9972 26.3654C59.9972 11.8275 48.1698 0 33.6318 0Z" fill="#88B395"/>
</g>
<defs>
<clipPath id="clip0_2316_332">
<rect width="60" height="60" fill="white"/>
</clipPath>
</defs>
</svg>
